<svg id="Capa_1" enable-background="new 0 0 512 512" height="512" viewBox="0 0 512 512" width="512" xmlns="http://www.w3.org/2000/svg"><g><g><path d="m441.87 460.053s-42.427-42.427-79.803-127.28c-42.349-96.144-41.417-214.155-106.067-214.155s-63.718 118.011-106.067 214.154c-37.376 84.854-79.803 127.28-79.803 127.28h371.74z" fill="#e490d0"/></g><g><path d="m504.5 460.053s-28.361-26.36-53.346-79.08c-28.309-59.734-27.686-133.055-70.904-133.055s-42.594 73.321-70.904 133.055c-24.985 52.72-53.346 79.08-53.346 79.08z" fill="#b3e59f"/></g><g><path d="m451.154 380.973c-28.309-59.734-27.686-133.055-70.904-133.055-4.909 0-9.248.955-13.132 2.72 30.312 13.771 32.678 77.386 57.771 130.335 24.985 52.72 53.346 79.08 53.346 79.08h26.265s-28.361-26.36-53.346-79.08z" fill="#95d6a4"/></g><g><path d="m362.067 332.772c-42.349-96.143-41.417-214.154-106.067-214.154-4.521 0-8.71.597-12.627 1.703 40.526 11.447 50.714 79.54 71.782 151.316 2.218 7.558 2.156 15.608-.175 23.132-1.858 5.995-3.658 12.206-5.501 18.576-5.645 19.508-11.481 39.68-20.216 58.111-22.583 47.652-48.199 72.135-48.393 72.319l-17.514 16.278h193.26 15.152 10.102s-42.427-42.427-79.803-127.281z" fill="#df73c1"/></g><g><path d="m343.258 281.132c-10.945 26.804-17.664 65.558-33.912 99.841-24.985 52.72-53.346 79.08-53.346 79.08h185.87s-42.427-42.427-79.803-127.28c-7.398-16.795-13.472-34.257-18.809-51.641z" fill="#ac80dd"/></g><g><path d="m504.5 480.837h-473.337v-225.569c3.423-.695 6-3.721 6-7.349s-2.577-6.654-6-7.349v-114.602c3.423-.695 6-3.721 6-7.349s-2.577-6.654-6-7.349v-103.77c0-4.143-3.358-7.5-7.5-7.5s-7.5 3.357-7.5 7.5v38.968h-8.663c-4.142 0-7.5 3.357-7.5 7.5s3.358 7.5 7.5 7.5h8.663v49.65h-8.663c-4.142 0-7.5 3.357-7.5 7.5s3.358 7.5 7.5 7.5h8.663v49.65h-8.663c-4.142 0-7.5 3.357-7.5 7.5s3.358 7.5 7.5 7.5h8.663v49.65h-8.663c-4.142 0-7.5 3.357-7.5 7.5s3.358 7.5 7.5 7.5h8.663v49.65h-8.663c-4.142 0-7.5 3.357-7.5 7.5s3.358 7.5 7.5 7.5h8.663v49.65h-8.663c-4.142 0-7.5 3.357-7.5 7.5s3.358 7.5 7.5 7.5h8.663v49.65h-8.663c-4.142 0-7.5 3.357-7.5 7.5s3.358 7.5 7.5 7.5h8.663v38.967c0 4.143 3.358 7.5 7.5 7.5h38.967v8.663c0 4.143 3.358 7.5 7.5 7.5s7.5-3.357 7.5-7.5v-8.663h49.65v8.663c0 4.143 3.358 7.5 7.5 7.5s7.5-3.357 7.5-7.5v-8.663h49.65v8.663c0 4.143 3.358 7.5 7.5 7.5s7.5-3.357 7.5-7.5v-8.663h49.65v8.663c0 4.143 3.357 7.5 7.5 7.5s7.5-3.357 7.5-7.5v-8.663h49.65v8.663c0 4.143 3.357 7.5 7.5 7.5s7.5-3.357 7.5-7.5v-8.663h49.65v8.663c0 4.143 3.357 7.5 7.5 7.5s7.5-3.357 7.5-7.5v-8.663h49.65v8.663c0 4.143 3.357 7.5 7.5 7.5s7.5-3.357 7.5-7.5v-8.663h38.97c4.143 0 7.5-3.357 7.5-7.5s-3.357-7.498-7.5-7.498z"/><path d="m455.12 389.253c-3.654 1.95-5.037 6.493-3.087 10.147 23.155 43.399 46.384 65.235 47.361 66.144 1.443 1.342 3.273 2.004 5.099 2.004 2.009 0 4.014-.803 5.491-2.389 2.82-3.028 2.652-7.772-.372-10.597-.223-.208-22.471-21.225-44.345-62.223-1.95-3.652-6.493-5.036-10.147-3.086z"/><path d="m64.823 454.75c-2.925 2.929-2.924 7.675.003 10.603 1.465 1.465 3.384 2.197 5.304 2.197 1.919 0 3.838-.732 5.303-2.196 1.773-1.772 43.856-44.394 81.361-129.561 11.518-26.147 19.951-54.135 27.191-80.374h20.499c4.142 0 7.5-3.357 7.5-7.5s-3.358-7.5-7.5-7.5h-16.417c.416-1.546.832-3.091 1.243-4.618 1.935-7.194 3.762-13.989 5.627-20.703 1.109-3.991-1.227-8.125-5.218-9.234-3.989-1.106-8.125 1.228-9.234 5.219-1.882 6.773-3.717 13.599-5.66 20.824-8.33 30.979-17.772 66.093-31.757 97.841-36.278 82.375-77.83 124.585-78.245 125.002z"/><path d="m394.332 380.408c-2.044-3.604-6.622-4.863-10.225-2.82-3.603 2.045-4.865 6.623-2.82 10.225 28.909 50.929 54.218 76.479 55.281 77.542 1.464 1.463 3.381 2.194 5.299 2.194s3.836-.732 5.301-2.194c2.929-2.926 2.932-7.673.009-10.604-.247-.249-25.034-25.352-52.845-74.343z"/><path d="m190.836 177.147c-1.36 3.913.709 8.187 4.622 9.547 3.911 1.359 8.187-.709 9.546-4.621 13.816-39.742 28.59-55.953 50.996-55.953 37.201 0 50.217 48.406 66.695 109.69.41 1.524.825 3.066 1.24 4.608h-.256c-4.143 0-7.5 3.357-7.5 7.5s3.357 7.5 7.5 7.5h4.337c2.296 8.323 4.716 16.818 7.313 25.379-4.286 11.004-7.928 23.573-11.706 36.633-5.805 20.071-11.808 40.824-21.052 60.327-23.984 50.602-51.411 76.549-51.685 76.805-3.027 2.821-3.198 7.562-.381 10.594 1.478 1.589 3.483 2.394 5.495 2.394 1.828 0 3.661-.664 5.105-2.007 1.2-1.116 29.705-27.953 55.021-81.361 9.762-20.596 16.214-42.902 21.906-62.583 1.733-5.993 3.392-11.636 5.03-16.922 3.656 10.509 7.665 20.951 12.142 31.113 3.043 6.914 6.264 13.86 9.573 20.647 1.3 2.665 3.969 4.215 6.747 4.215 1.103 0 2.224-.245 3.281-.761 3.724-1.815 5.27-6.306 3.454-10.028-3.225-6.612-6.362-13.38-9.327-20.117-6.845-15.54-12.597-31.886-17.668-48.159 7.184-16.727 15.539-26.167 28.984-26.167 21.957 0 30.346 25.147 42.215 66.179 4.26 14.727 8.664 29.954 14.513 45.207 1.483 3.867 5.818 5.802 9.688 4.317 3.867-1.483 5.8-5.82 4.317-9.688-5.621-14.66-9.937-29.577-14.109-44.004-5.707-19.727-11.097-38.359-18.876-52.118-2.11-3.732-4.371-7.011-6.774-9.894h11.786c4.143 0 7.5-3.357 7.5-7.5s-3.357-7.5-7.5-7.5h-11.92c-4.143 0-7.5 3.357-7.5 7.5 0 .043.006.084.006.127-6.759-5.104-14.498-7.626-23.346-7.626-.191 0-.375.016-.564.018-.127-.006-.253-.019-.382-.019h-11.919c-3.419 0-6.298 2.29-7.201 5.418-5.624 3.409-10.614 8.449-15.03 15.16-2.822-9.933-5.45-19.698-7.973-29.081-11.988-44.586-22.852-84.989-44.317-105.868 3.683-.477 6.53-3.617 6.53-7.43 0-4.143-3.357-7.5-7.5-7.5h-11.919c-2.438 0-4.597 1.168-5.967 2.969-5.447-1.934-11.417-2.967-18.008-2.967-.063 0-.122.005-.185.005-.046-.001-.079-.007-.127-.007h-19.419c-4.112 0-7.446 3.309-7.495 7.41-19.04 11.642-29.833 35.312-37.936 58.619z"/><path d="m454.795 126.118h11.92c4.143 0 7.5-3.357 7.5-7.5s-3.357-7.5-7.5-7.5h-11.92c-4.143 0-7.5 3.357-7.5 7.5s3.357 7.5 7.5 7.5z"/><path d="m411.09 126.118h11.92c4.143 0 7.5-3.357 7.5-7.5s-3.357-7.5-7.5-7.5h-11.92c-4.143 0-7.5 3.357-7.5 7.5s3.357 7.5 7.5 7.5z"/><path d="m367.385 126.118h11.919c4.143 0 7.5-3.357 7.5-7.5s-3.357-7.5-7.5-7.5h-11.919c-4.143 0-7.5 3.357-7.5 7.5s3.357 7.5 7.5 7.5z"/><path d="m323.68 126.118h11.919c4.143 0 7.5-3.357 7.5-7.5s-3.357-7.5-7.5-7.5h-11.919c-4.143 0-7.5 3.357-7.5 7.5s3.357 7.5 7.5 7.5z"/><path d="m192.564 126.118h11.919c4.142 0 7.5-3.357 7.5-7.5s-3.358-7.5-7.5-7.5h-11.919c-4.142 0-7.5 3.357-7.5 7.5s3.358 7.5 7.5 7.5z"/><path d="m148.858 126.118h11.92c4.142 0 7.5-3.357 7.5-7.5s-3.358-7.5-7.5-7.5h-11.92c-4.142 0-7.5 3.357-7.5 7.5s3.358 7.5 7.5 7.5z"/><path d="m105.153 126.118h11.92c4.142 0 7.5-3.357 7.5-7.5s-3.358-7.5-7.5-7.5h-11.92c-4.142 0-7.5 3.357-7.5 7.5s3.358 7.5 7.5 7.5z"/><path d="m61.448 126.118h11.919c4.142 0 7.5-3.357 7.5-7.5s-3.358-7.5-7.5-7.5h-11.919c-4.142 0-7.5 3.357-7.5 7.5s3.358 7.5 7.5 7.5z"/><path d="m498.5 126.118h6c4.143 0 7.5-3.357 7.5-7.5s-3.357-7.5-7.5-7.5h-6c-4.143 0-7.5 3.357-7.5 7.5s3.357 7.5 7.5 7.5z"/><path d="m148.858 255.419h11.92c4.142 0 7.5-3.357 7.5-7.5s-3.358-7.5-7.5-7.5h-11.92c-4.142 0-7.5 3.357-7.5 7.5s3.358 7.5 7.5 7.5z"/><path d="m61.448 255.419h11.919c4.142 0 7.5-3.357 7.5-7.5s-3.358-7.5-7.5-7.5h-11.919c-4.142 0-7.5 3.357-7.5 7.5s3.358 7.5 7.5 7.5z"/><path d="m454.795 255.419h11.92c4.143 0 7.5-3.357 7.5-7.5s-3.357-7.5-7.5-7.5h-11.92c-4.143 0-7.5 3.357-7.5 7.5s3.357 7.5 7.5 7.5z"/><path d="m291.894 255.419c4.143 0 7.5-3.357 7.5-7.5s-3.357-7.5-7.5-7.5h-11.919c-4.143 0-7.5 3.357-7.5 7.5s3.357 7.5 7.5 7.5z"/><path d="m255.688 247.919c0-4.143-3.358-7.5-7.5-7.5h-11.919c-4.142 0-7.5 3.357-7.5 7.5s3.358 7.5 7.5 7.5h11.919c4.143 0 7.5-3.357 7.5-7.5z"/><path d="m105.153 255.419h11.92c4.142 0 7.5-3.357 7.5-7.5s-3.358-7.5-7.5-7.5h-11.92c-4.142 0-7.5 3.357-7.5 7.5s3.358 7.5 7.5 7.5z"/><path d="m504.5 240.419h-6c-4.143 0-7.5 3.357-7.5 7.5s3.357 7.5 7.5 7.5h6c4.143 0 7.5-3.357 7.5-7.5s-3.357-7.5-7.5-7.5z"/></g></g></svg>