<svg id="Capa_1" enable-background="new 0 0 512 512" height="512" viewBox="0 0 512 512" width="512" xmlns="http://www.w3.org/2000/svg"><g><g><path d="m256 43.866c-117.158 0-212.134 94.976-212.134 212.134s94.976 212.134 212.134 212.134 212.134-94.976 212.134-212.134-94.976-212.134-212.134-212.134zm0 383.862c-94.843 0-171.728-76.885-171.728-171.728s76.885-171.728 171.728-171.728 171.728 76.885 171.728 171.728-76.885 171.728-171.728 171.728z" fill="#e28086"/></g><g><path d="m298.427 48.119v41.437c-13.566-3.455-27.779-5.283-42.427-5.283-14.647 0-28.86 1.828-42.427 5.283v-41.437c13.708-2.788 27.901-4.253 42.427-4.253s28.719 1.465 42.427 4.253z" fill="#dd636e"/></g><g><path d="m468.134 256c0 14.526-1.465 28.719-4.253 42.427h-41.437c3.455-13.566 5.283-27.779 5.283-42.427 0-14.647-1.828-28.86-5.283-42.427h41.437c2.788 13.708 4.253 27.901 4.253 42.427z" fill="#dd636e"/></g><g><path d="m298.427 422.444v41.437c-13.708 2.788-27.901 4.253-42.427 4.253s-28.719-1.465-42.427-4.253v-41.437c13.566 3.455 27.779 5.283 42.427 5.283 14.647.001 28.86-1.828 42.427-5.283z" fill="#dd636e"/></g><g><path d="m84.272 256c0 14.647 1.828 28.86 5.283 42.427h-41.436c-2.788-13.708-4.253-27.901-4.253-42.427s1.465-28.719 4.253-42.427h41.437c-3.455 13.567-5.284 27.78-5.284 42.427z" fill="#dd636e"/></g><g><path d="m235.797 7.5h40.407v113.138h-40.407z" fill="#da4a54"/></g><g><path d="m391.362 235.797h113.138v40.407h-113.138z" fill="#da4a54"/></g><g><path d="m235.797 391.362h40.407v113.138h-40.407z" fill="#da4a54"/></g><g><path d="m7.5 235.797h113.138v40.407h-113.138z" fill="#da4a54"/></g><g><g><path d="m175.187 278.224h32.325v80.813h-32.325z" fill="#ffe07d"/></g><g><path d="m239.837 247.919h32.325v111.118h-32.325z" fill="#cbe2ff"/></g><g><path d="m304.488 209.533h32.325v149.504h-32.325z" fill="#9bd069"/></g></g><g><path d="m504.5 228.297h-30.624c-12.472-99.222-90.95-177.701-190.173-190.173v-30.624c0-4.143-3.358-7.5-7.5-7.5h-40.406c-4.142 0-7.5 3.357-7.5 7.5v30.616c-36.793 4.638-71.894 18.583-101.906 40.553-3.342 2.446-4.068 7.14-1.622 10.481 1.469 2.008 3.748 3.071 6.058 3.071 1.538 0 3.089-.472 4.424-1.449 27.445-20.091 59.46-32.974 93.046-37.526v25.666c-37.261 5.813-72.211 23.535-99.03 50.354s-44.54 61.769-50.354 99.03h-25.667c5.884-43.275 25.744-83.981 56.463-115.384 2.896-2.961 2.844-7.709-.117-10.605-2.961-2.897-7.709-2.843-10.606.117-33.446 34.19-54.892 78.663-60.86 125.872h-30.626c-4.142 0-7.5 3.357-7.5 7.5v40.406c0 4.143 3.358 7.5 7.5 7.5h30.624c12.472 99.222 90.95 177.701 190.173 190.173v30.625c0 4.143 3.358 7.5 7.5 7.5h40.406c4.142 0 7.5-3.357 7.5-7.5v-30.624c99.223-12.472 177.701-90.95 190.173-190.173h30.624c4.142 0 7.5-3.357 7.5-7.5v-40.406c0-4.143-3.358-7.5-7.5-7.5zm-45.746 0h-25.668c-5.813-37.261-23.535-72.211-50.354-99.03s-61.769-44.54-99.03-50.354v-25.667c90.928 12.28 162.772 84.124 175.052 175.051zm-215.457-213.297h25.406v98.139h-25.406zm-228.297 228.297h98.138v25.406h-98.138zm38.246 40.406h25.668c5.813 37.261 23.535 72.211 50.354 99.03s61.769 44.54 99.03 50.354v25.668c-90.928-12.281-162.772-84.125-175.052-175.052zm215.457 213.297h-25.406v-98.139h25.406zm15-38.246v-25.669c39.458-6.14 75.962-25.457 103.394-54.871 2.825-3.029 2.66-7.775-.37-10.6-3.028-2.826-7.774-2.66-10.6.369-24.603 26.38-57.164 43.897-92.424 49.904v-26.527c0-4.143-3.358-7.5-7.5-7.5h-40.406c-4.142 0-7.5 3.357-7.5 7.5v26.534c-68.952-11.632-122.561-65.24-134.193-134.193h26.534c4.142 0 7.5-3.357 7.5-7.5v-40.406c0-4.143-3.358-7.5-7.5-7.5h-26.534c11.632-68.952 65.24-122.561 134.193-134.193v26.534c0 4.143 3.358 7.5 7.5 7.5h40.406c4.142 0 7.5-3.357 7.5-7.5v-26.532c68.952 11.632 122.561 65.24 134.193 134.193h-26.534c-4.142 0-7.5 3.357-7.5 7.5v40.406c0 4.143 3.358 7.5 7.5 7.5h26.537c-3.444 20.372-10.635 39.66-21.438 57.441-2.151 3.54-1.024 8.153 2.516 10.305 1.217.739 2.56 1.091 3.887 1.091 2.533 0 5.006-1.283 6.417-3.606 12.238-20.144 20.221-42.06 23.803-65.23h25.671c-12.281 90.926-84.125 162.77-175.052 175.05zm213.297-190.051h-98.138v-25.406h98.138z"/><path d="m175.193 237.237c1.175 0 2.367-.277 3.48-.861l122.237-64.174 5.201 9.907c1.446 2.754 5.331 2.91 6.993.281l19.969-31.593c1.662-2.629-.145-6.071-3.253-6.196l-37.344-1.503c-3.108-.125-5.186 3.161-3.74 5.916l5.201 9.907-122.237 64.174c-3.667 1.926-5.08 6.459-3.154 10.127 1.342 2.554 3.949 4.015 6.647 4.015z"/><path d="m351.965 351.536h-7.652v-142.004c0-4.143-3.358-7.5-7.5-7.5h-32.325c-4.142 0-7.5 3.357-7.5 7.5v142.004h-17.325v-103.617c0-4.143-3.358-7.5-7.5-7.5h-32.325c-4.142 0-7.5 3.357-7.5 7.5v103.617h-17.325v-73.313c0-4.143-3.358-7.5-7.5-7.5h-32.325c-4.142 0-7.5 3.357-7.5 7.5v73.313h-7.652c-4.142 0-7.5 3.357-7.5 7.5s3.358 7.5 7.5 7.5h191.931c4.142 0 7.5-3.357 7.5-7.5s-3.36-7.5-7.502-7.5zm-169.278 0v-65.813h17.325v65.813zm64.65 0v-96.117h17.325v96.117zm64.651 0v-134.504h17.325v134.504z"/></g></g></svg>