<svg id="Capa_1" enable-background="new 0 0 512 512" height="512" viewBox="0 0 512 512" width="512" xmlns="http://www.w3.org/2000/svg"><g><g><g><g><g><path d="m345.043 118.25h30.127v30h-30.127z" fill="#fbca14"/></g><g><path d="m457.611 218.701h30.128v30h-30.128z" fill="#fbca14"/></g></g><g><g><path d="m198.974 152h30.127v30h-30.127z" fill="#fed843"/></g><g><path d="m59.915 91.894h29.617v30h-29.617z" fill="#fed843"/></g></g></g><g><path d="m244.9 497.78-116.9-.01-35.07-114.004 35.07-111.766h47.25l34.87-33.47 58.541 87.811-.916 139.382z" fill="#00429c"/><path d="m128 272v225.77h-112.88v-289.24l58.88-34.03z" fill="#005fe0"/><g><path d="m489.85 482s-13.446 13.638-14.808 15h-206.297l-12.745-15-41.963-49.723 41.963-89.627 104.12-134.12 30 60 63.75 30z" fill="#cf3b00"/><path d="m256 342.65v139.35h-225.88l60-63.47h90z" fill="#ff4c04"/></g></g></g><g><path d="m512 482v30h-256l-11.1-14.22 11.1-15.78z" fill="#008475"/><path d="m256 482v30h-256l.12-512h30v482z" fill="#00a98f"/></g></g></svg>