<svg width="292" height="294" xmlns="http://www.w3.org/2000/svg" xmlns:xlink="http://www.w3.org/1999/xlink" overflow="hidden"><defs><clipPath id="clip0"><rect x="785" y="911" width="292" height="294"/></clipPath></defs><g clip-path="url(#clip0)" transform="translate(-785 -911)"><path d="M799 1059C799 986.099 858.098 927 931 927 1003.9 927 1063 986.099 1063 1059 1063 1131.9 1003.9 1191 931 1191 858.098 1191 799 1131.9 799 1059Z" stroke="#2D8C26" stroke-width="27.5" stroke-miterlimit="8" fill="#2D8C26" fill-rule="evenodd"/><path d="M806.507 1133.53C805.554 1146.89 902.17 1136.2 945.999 1117.49 989.828 1098.78 1070.82 1055.24 1069.48 1021.26 1068.15 987.27 957.623 910.895 937.995 913.568 918.367 916.241 973.44 1000.64 951.716 1037.3 929.992 1073.96 807.46 1120.16 806.507 1133.53Z" stroke="#FFFFFF" stroke-width="4.58333" stroke-miterlimit="8" fill="#FFFFFF" fill-rule="evenodd"/></g></svg>