<svg id="Capa_1" enable-background="new 0 0 504.5 504.5" height="512" viewBox="0 0 504.5 504.5" width="512" xmlns="http://www.w3.org/2000/svg"><g id="_x3C_Group_x3E__22_"><path d="m243.381 10.649-101.025 103.149c-6.172 6.409-8.048 17.956.85 17.956h45.443c1.637 0 3.183.39 4.55 1.082 3.287 1.663 8.732 3.324 8.732 7.26l3.745 340.34c0 5.572 4.517 10.09 10.09 10.09l7.974 6.474h68.729c5.572 0 10.09-4.517 10.09-10.09v-39.95l-31.648-144.608 31.648-128.672v-31.836c0-5.572 4.517-10.09 10.09-10.09h45.443c8.897 0 13.439-10.679 7.268-17.088l-102.213-106.143-5.231 2.126c-3.968-4.121-10.566-4.121-14.535 0z" fill="#b3e59f"/><path d="m263.15 8.52-118.64 123.23h-1.3c-8.9 0-13.44-10.68-7.27-17.08l107.44-111.58c3.97-4.12 10.57-4.12 14.54 0z" fill="#95d6a4"/><g><path d="m148.009 449.298c-4.142 0-7.5-3.358-7.5-7.5v-98.217c0-4.142 3.358-7.5 7.5-7.5s7.5 3.358 7.5 7.5v98.217c0 4.142-3.358 7.5-7.5 7.5z" fill="#b3e59f"/></g><g><path d="m98.009 504.5c-4.142 0-7.5-3.358-7.5-7.5v-117.63c0-4.142 3.358-7.5 7.5-7.5s7.5 3.358 7.5 7.5v117.63c0 4.142-3.358 7.5-7.5 7.5z" fill="#b3e59f"/></g><g><path d="m356.491 449.298c-4.143 0-7.5-3.358-7.5-7.5v-98.217c0-4.142 3.357-7.5 7.5-7.5s7.5 3.358 7.5 7.5v98.217c0 4.142-3.357 7.5-7.5 7.5z" fill="#b3e59f"/></g><g><path d="m406.491 504.5c-4.143 0-7.5-3.358-7.5-7.5v-117.63c0-4.142 3.357-7.5 7.5-7.5s7.5 3.358 7.5 7.5v117.63c0 4.142-3.357 7.5-7.5 7.5z" fill="#b3e59f"/></g><path d="m252.33 164.82c-8.104 0-16.104.663-23.943 1.955-2.436.401-4.647-1.47-4.647-3.939v-20.996c0-5.573-4.517-10.09-10.09-10.09h-25c5.57 0 10.09 4.52 10.09 10.09v33.12 270.72 41.23c0 5.573 4.517 10.09 10.09 10.09h14.91v-39.196c0-2.468 2.212-4.34 4.647-3.939 7.839 1.291 15.839 1.955 23.943 1.955 17.42 0 34.36-3.04 50.23-8.86v-273.28c-15.87-5.82-32.81-8.86-50.23-8.86z" fill="#95d6a4"/><g><path d="m343.195 219.46c-50.182-50.182-131.544-50.182-181.726 0s-45.044 129.683 5.139 179.866 126.405 52.043 176.588 1.861 50.182-131.545-.001-181.727z" fill="#f7f9fa"/><path d="m348.992 394.983c-1.84 2.11-3.78 4.18-5.8 6.2-50.18 50.19-131.54 50.19-181.72 0-50.19-50.18-50.19-131.54 0-181.72 2.02-2.02 4.09-3.96 6.2-5.8-44.31 50.47-42.37 127.36 5.8 175.52 48.16 48.17 125.05 50.11 175.52 5.8z" fill="#e9edf1"/><path d="m322.022 240.633c-38.489-38.489-100.892-38.489-139.381 0s-34.098 96.204 4.391 134.693 96.501 43.177 134.989 4.688 38.49-100.892.001-139.381z" fill="#e9edf1"/><path d="m328.222 373.213c-1.94 2.34-4.01 4.61-6.2 6.8-38.49 38.49-100.89 38.49-139.38 0s-38.49-100.89 0-139.38c2.19-2.19 4.46-4.26 6.8-6.2-32.17 38.72-30.1 96.28 6.2 132.58s93.86 38.37 132.58 6.2z" fill="#dce6eb"/><g><g><path d="m217.482 299.388c-6.128 0-12.255-2.332-16.92-6.996-9.329-9.329-9.329-24.51 0-33.839 9.329-9.327 24.508-9.329 33.839 0 9.329 9.329 9.329 24.51 0 33.839-4.666 4.664-10.793 6.996-16.919 6.996zm0-32.839c-2.286 0-4.572.87-6.313 2.611-3.481 3.48-3.481 9.144 0 12.624 3.479 3.482 9.143 3.484 12.624 0 3.481-3.48 3.481-9.144 0-12.624-1.74-1.741-4.026-2.611-6.311-2.611z" fill="#df646e"/></g><g><path d="m287.175 369.082c-6.127 0-12.254-2.332-16.919-6.996-9.329-9.329-9.329-24.51 0-33.839 9.331-9.328 24.51-9.328 33.839 0 9.329 9.329 9.329 24.51 0 33.839-4.665 4.664-10.792 6.996-16.92 6.996zm0-32.839c-2.285 0-4.571.87-6.312 2.611-3.481 3.48-3.481 9.144 0 12.624 3.481 3.482 9.145 3.482 12.624 0 3.481-3.48 3.481-9.144 0-12.624-1.74-1.741-4.026-2.611-6.312-2.611z" fill="#df646e"/></g><g><path d="m206.256 363.899c-1.919 0-3.839-.732-5.304-2.196-2.929-2.93-2.929-7.678 0-10.607l92.152-92.152c2.93-2.928 7.678-2.928 10.607 0 2.929 2.93 2.929 7.678 0 10.607l-92.152 92.152c-1.464 1.464-3.384 2.196-5.303 2.196z" fill="#df646e"/></g></g></g></g></svg>