<svg id="Capa_1" enable-background="new 0 0 497 497" height="512" viewBox="0 0 497 497" width="512" xmlns="http://www.w3.org/2000/svg"><g><path d="m256.191.058 150.809 278.388 90-30c0-134.67-107.124-244.324-240.809-248.388z" fill="#f63"/><path d="m256.191.058c-4.215-.128-7.691 3.287-7.691 7.503v82.385l158.5 188.5 60-30c0-134.67-93.779-244.324-210.809-248.388z" fill="#ff8b47"/><path d="m467 248.446h30c0 136.3-109.74 246.97-245.68 248.48z" fill="#f9b348"/><path d="m407 248.446-158.5 112.08h-112.08l-58.253 58.253c-2.978 2.978-2.942 7.847.127 10.733 44.469 41.817 104.349 67.434 170.207 67.434.94 0 1.88-.01 2.82-.02 119.369-1.72 215.679-112.31 215.679-248.48z" fill="#f3da49"/><path d="m78.167 78.113c-2.978-2.978-7.847-2.942-10.733.127-41.818 44.468-67.434 104.348-67.434 170.206 0 30.975 5.672 60.632 16.029 87.982 1.492 3.939 5.976 5.835 9.867 4.223l76.134-31.536 34.39-172.75z" fill="#ae7df0"/><path d="m361.85 359.236-12.63-62.91-99.06 110.61c43.76-.45 83.27-18.63 111.69-47.7z" fill="#28abfa"/><path d="m250.16 406.936c-.55.01-1.11.01-1.66.01l-45-45 45-45c19.2 0 36.55-7.9 48.99-20.62h51.73v50.56c-23.22 36.09-58.92 59.42-99.06 60.05z" fill="#14cfff"/><path d="m248.5 316.946v90c-87.54 0-158.5-70.96-158.5-158.5l45-45 45 45c0 37.83 30.67 68.5 68.5 68.5z" fill="#8ae7ff"/><path d="m250.16 89.956 81.84 128.49 17.22 128.44 12.63 12.35c27.93-28.57 45.15-67.67 45.15-110.79 0-86.99-70.07-157.6-156.84-158.49z" fill="#373e9f"/><path d="m377 248.446c0 37.2-10.39 71.4-27.78 98.44l-51.73-50.56c12.07-12.35 19.51-29.24 19.51-47.88 0-37.83-30.67-68.5-68.5-68.5s-68.5 30.67-68.5 68.5h-90c0-87.54 70.96-158.5 158.5-158.5.55 0 1.11 0 1.66.01 70.21 1.1 126.84 71.63 126.84 158.49z" fill="#3857bc"/></g></svg>