<svg id="Layer_3" enable-background="new 0 0 64 64" height="512" viewBox="0 0 64 64" width="512" xmlns="http://www.w3.org/2000/svg"><path d="m61 47.184v-30.368c1.161-.414 2-1.514 2-2.816 0-1.654-1.346-3-3-3-.837 0-1.593.346-2.138.9l-22.89-7.63c.009-.09.028-.177.028-.27 0-1.654-1.346-3-3-3s-3 1.346-3 3c0 .093.019.18.027.271l-22.889 7.629c-.545-.554-1.301-.9-2.138-.9-1.654 0-3 1.346-3 3 0 1.302.839 2.402 2 2.816v30.369c-1.161.413-2 1.513-2 2.815 0 1.654 1.346 3 3 3 .837 0 1.593-.346 2.138-.9l22.89 7.63c-.009.09-.028.177-.028.27 0 1.654 1.346 3 3 3s3-1.346 3-3c0-.093-.019-.18-.027-.271l22.89-7.63c.544.555 1.3.901 2.137.901 1.654 0 3-1.346 3-3 0-1.302-.839-2.402-2-2.816zm-1-34.184c.551 0 1 .448 1 1s-.449 1-1 1-1-.448-1-1 .449-1 1-1zm-28-10c.551 0 1 .448 1 1s-.449 1-1 1-1-.448-1-1 .449-1 1-1zm-28 10c.551 0 1 .448 1 1s-.449 1-1 1-1-.448-1-1 .449-1 1-1zm0 38c-.551 0-1-.448-1-1s.449-1 1-1 1 .448 1 1-.449 1-1 1zm28 10c-.551 0-1-.448-1-1s.449-1 1-1 1 .448 1 1-.449 1-1 1zm2.138-3.1c-.545-.554-1.301-.9-2.138-.9s-1.593.346-2.138.9l-22.89-7.63c.009-.09.028-.177.028-.27 0-1.302-.839-2.402-2-2.816v-30.368c1.161-.414 2-1.514 2-2.816 0-.093-.019-.18-.027-.271l22.89-7.63c.544.555 1.3.901 2.137.901s1.593-.346 2.138-.9l22.89 7.63c-.009.09-.028.177-.028.27 0 1.302.839 2.402 2 2.816v30.369c-1.161.414-2 1.514-2 2.816 0 .093.019.18.027.271zm25.862-6.9c-.551 0-1-.448-1-1s.449-1 1-1 1 .448 1 1-.449 1-1 1z"/><path d="m32 28h-2c-.552 0-1 .447-1 1v6c0 .553.448 1 1 1h2c1.654 0 3-1.346 3-3v-2c0-1.654-1.346-3-3-3zm1 5c0 .552-.449 1-1 1h-1v-4h1c.551 0 1 .448 1 1z"/><path d="m22 29v6c0 .553.448 1 1 1h4c.552 0 1-.447 1-1v-3c0-.553-.448-1-1-1h-2v2h1v1h-2v-4h4v-2h-5c-.552 0-1 .447-1 1z"/><path d="m41 28h-4c-.552 0-1 .447-1 1v7h2v-3h3c.552 0 1-.447 1-1v-3c0-.553-.448-1-1-1zm-1 3h-2v-1h2z"/><path d="m32 8c-13.233 0-24 10.767-24 24s10.767 24 24 24 24-10.767 24-24-10.767-24-24-24zm21.975 23h-7.975v-6c0-.553-.448-1-1-1h-.739c-1.081-5.739-3.251-10.328-6.02-13.093 8.793 2.607 15.305 10.569 15.734 20.093zm-33.975 7v-12h24v12zm13-27.895c4.064.777 7.698 6.222 9.227 13.895h-9.227zm-2 0v13.895h-9.227c1.529-7.673 5.163-13.118 9.227-13.895zm0 29.895v13.895c-4.064-.777-7.698-6.222-9.227-13.895zm2 13.895v-13.895h9.227c-1.529 7.673-5.163 13.118-9.227 13.895zm-7.241-42.988c-2.769 2.765-4.939 7.354-6.02 13.093h-.739c-.552 0-1 .447-1 1v6h-7.975c.429-9.524 6.941-17.486 15.734-20.093zm-15.734 22.093h7.975v6c0 .553.448 1 1 1h.739c1.081 5.739 3.251 10.328 6.02 13.093-8.793-2.607-15.305-10.569-15.734-20.093zm28.216 20.093c2.769-2.765 4.939-7.354 6.02-13.093h.739c.552 0 1-.447 1-1v-6h7.975c-.429 9.524-6.941 17.486-15.734 20.093z"/></svg>