<svg height="512" viewBox="0 0 512 512" width="512" xmlns="http://www.w3.org/2000/svg"><g><path d="m367.224 147.438a8 8 0 0 0 -1.015-8.483l-104-128a8 8 0 0 0 -12.418 0l-104 128a8 8 0 0 0 6.209 13.045h48v344a8 8 0 0 0 8 8h96a8 8 0 0 0 8-8v-344h48a8 8 0 0 0 7.224-4.562zm-63.224-11.438a8 8 0 0 0 -8 8v344h-80v-344a8 8 0 0 0 -8-8h-39.192l87.192-107.313 87.192 107.313z"/><path d="m94.4 155.2a8 8 0 0 0 -12.8 0l-72 96a8 8 0 0 0 6.4 12.8h32v176a8 8 0 0 0 8 8h64a8 8 0 0 0 8-8v-176h32a8 8 0 0 0 6.4-12.8zm25.6 92.8a8 8 0 0 0 -8 8v176h-48v-176a8 8 0 0 0 -8-8h-24l56-74.667 56 74.667z"/><path d="m120 456h-64a8 8 0 0 0 -8 8v32a8 8 0 0 0 8 8h64a8 8 0 0 0 8-8v-32a8 8 0 0 0 -8-8zm-8 32h-48v-16h48z"/><path d="m502.4 251.2-72-96a8 8 0 0 0 -12.8 0l-72 96a8 8 0 0 0 6.4 12.8h32v96a8 8 0 0 0 8 8h64a8 8 0 0 0 8-8v-96h32a8 8 0 0 0 6.4-12.8zm-46.4-3.2a8 8 0 0 0 -8 8v96h-48v-96a8 8 0 0 0 -8-8h-24l56-74.667 56 74.667z"/><path d="m456 376h-64a8 8 0 0 0 -8 8v32a8 8 0 0 0 8 8h64a8 8 0 0 0 8-8v-32a8 8 0 0 0 -8-8zm-8 32h-48v-16h48z"/><path d="m230.343 281.657a8 8 0 0 0 11.314 0l40-40a8 8 0 0 0 -11.314-11.314l-40 40a8 8 0 0 0 0 11.314z"/><circle cx="240" cy="240" r="8"/><circle cx="272" cy="272" r="8"/></g></svg>