<svg id="Layer_5" enable-background="new 0 0 64 64" height="512" viewBox="0 0 64 64" width="512" xmlns="http://www.w3.org/2000/svg"><g><path d="m33 43.145v-2.145h-2v2.145c-1.155.366-2 1.435-2 2.709 0 1.088.604 2.065 1.578 2.553l1.949.975c.292.145.473.438.473.764 0 .47-.384.854-.854.854h-.291c-.471 0-.855-.384-.855-.854v-1.146h-2v1.146c0 1.275.845 2.344 2 2.709v2.145h2v-2.145c1.155-.366 2-1.435 2-2.709 0-1.088-.604-2.065-1.578-2.553l-1.949-.975c-.292-.145-.473-.438-.473-.764 0-.47.384-.854.854-.854h.291c.471 0 .855.384.855.854v.146h2v-.146c0-1.274-.845-2.343-2-2.709z"/><path d="m57 33v-29c0-1.654-1.346-3-3-3h-44c-1.654 0-3 1.346-3 3v29h-6v30h62v-30zm-48-29c0-.551.448-1 1-1h5.586l-6.586 6.586zm0 8.414 9.414-9.414h3.172l-12.586 12.586zm0 6 15.414-15.414h29.586c.552 0 1 .449 1 1v29h-8v-1c0-1.302-.839-2.402-2-2.816v-10.184h2v-2.597l-12.646-6.81c-1.443-.776-3.266-.777-4.709 0l-12.645 6.81v2.597h2v10.184c-1.161.414-2 1.514-2 2.816v1h-8zm11.109-1.414 10.483-5.645c.863-.465 1.951-.464 2.814 0l10.485 5.645zm22.891 2v10h-2v-10zm-4 0v10h-4v-10zm-6 0v10h-2v-10zm-4 0v10h-4v-10zm-6 0v10h-2v-10zm21 12c.552 0 1 .449 1 1v1h-26v-1c0-.551.448-1 1-1zm17 30h-58v-26h58z"/><path d="m59 37h-54v22h54zm-52 2h3.899c-.399 1.956-1.943 3.5-3.899 3.899zm0 18v-3.899c1.956.399 3.5 1.943 3.899 3.899zm5.92 0c-.441-3.059-2.861-5.479-5.92-5.92v-6.16c3.059-.441 5.479-2.861 5.92-5.92h12.775c-2.834 1.992-4.695 5.28-4.695 9s1.861 7.008 4.695 9zm10.08-9c0-4.963 4.037-9 9-9s9 4.037 9 9-4.037 9-9 9-9-4.037-9-9zm34 9h-3.899c.399-1.956 1.943-3.5 3.899-3.899zm0-5.92c-3.059.441-5.479 2.861-5.92 5.92h-12.775c2.834-1.992 4.695-5.28 4.695-9s-1.861-7.008-4.695-9h12.775c.441 3.059 2.861 5.479 5.92 5.92zm0-8.181c-1.956-.399-3.5-1.943-3.899-3.899h3.899z"/><path d="m51 11h2v-6h-8v2h6z"/><path d="m51 13h2v2h-2z"/></g></svg>