<?xml version="1.0" encoding="iso-8859-1"?>
<!-- Generator: Adobe Illustrator 19.0.0, SVG Export Plug-In . SVG Version: 6.00 Build 0)  -->
<svg version="1.1" id="Capa_1" xmlns="http://www.w3.org/2000/svg" xmlns:xlink="http://www.w3.org/1999/xlink" x="0px" y="0px"
	 viewBox="0 0 464.001 464.001" style="enable-background:new 0 0 464.001 464.001;" xml:space="preserve">
<g>
	<g>
		<path d="M216,144c-17.673,0-32,14.327-32,32s14.327,32,32,32s32-14.327,32-32S233.673,144,216,144z M216,192
			c-8.837,0-16-7.163-16-16s7.163-16,16-16s16,7.163,16,16S224.837,192,216,192z"/>
	</g>
</g>
<g>
	<g>
		<path d="M312,240c-17.673,0-32,14.327-32,32c0,17.673,14.327,32,32,32c17.673,0,32-14.327,32-32C344,254.327,329.673,240,312,240z
			 M312,288c-8.837,0-16-7.163-16-16s7.163-16,16-16s16,7.163,16,16S320.837,288,312,288z"/>
	</g>
</g>
<g>
	<g>
		<rect x="173.491" y="215.999" transform="matrix(0.7071 -0.7071 0.7071 0.7071 -81.0676 252.2835)" width="181.017" height="16"/>
	</g>
</g>
<g>
	<g>
		<path d="M453.024,132.4L398.4,96h1.6V40c0-4.418-3.582-8-8-8h-40c-4.418,0-8,3.582-8,8v19.72l-75.56-50.4
			c-2.688-1.794-6.192-1.794-8.88,0L74.976,132.4c-11.324,7.549-14.385,22.848-6.836,34.172
			c7.549,11.324,22.848,14.385,34.172,6.836L128,156.288V312h-16c0-4.418-3.582-8-8-8H40c-4.418,0-8,3.582-8,8H0v16h32v80H0v16h32
			c0,4.418,3.582,8,8,8h64c4.418,0,8-3.582,8-8v-3.048l59.728,24.8c32.56,13.298,68.961,13.702,101.808,1.128l123.584-47.128
			c7.321-2.782,13.213-8.397,16.344-15.576c3.233-7.28,3.4-15.555,0.464-22.96c-2.616-6.621-7.572-12.05-13.928-15.256V156.288
			l25.688,17.12c11.324,7.549,26.623,4.488,34.172-6.836C467.409,155.248,464.348,139.948,453.024,132.4z M96,416H48v-96h48V416z
			 M360,48h24v38.4l-24-16V48z M398.792,377.728c-1.413,3.266-4.084,5.825-7.408,7.096L267.8,431.944
			c-29.039,11.124-61.223,10.778-90.016-0.968L112,403.624V328h20.28c26.526,0.031,52.684,6.206,76.424,18.04
			c7.839,3.913,16.479,5.953,25.24,5.96H296c6.627,0.043,11.965,5.45,11.922,12.077c-0.036,5.551-3.875,10.354-9.282,11.611
			c-1.048,0.096-2.072,0.312-3.136,0.312H200v16h95.504c0.168,0,0.328,0,0.496,0c0.16,0,0.312-0.048,0.48-0.048
			c6.349-0.102,12.619-1.431,18.464-3.912l66.888-28.392c3.186-1.36,6.79-1.36,9.976,0c3.314,1.399,5.914,4.088,7.2,7.448
			C400.367,370.525,400.289,374.357,398.792,377.728z M296,336h-62.056c-6.278-0.009-12.469-1.472-18.088-4.272
			c-22.423-11.17-46.855-17.742-71.856-19.328V145.6l120-80l120,80v197.28c-2.894,0.244-5.735,0.926-8.424,2.024l-51.872,22.024
			c0.151-0.97,0.25-1.947,0.296-2.928C324,348.536,311.464,336,296,336z M439.353,161.561c-1.706,0-3.373-0.504-4.793-1.449
			L268.44,49.344c-2.688-1.794-6.192-1.794-8.88,0L93.44,160.096c-3.976,2.647-9.344,1.569-11.991-2.407
			c-0.945-1.42-1.449-3.087-1.449-4.793c-0.005-2.893,1.44-5.597,3.848-7.2L264,25.6l180.152,120.112
			c2.408,1.604,3.853,4.307,3.848,7.2C448.001,157.688,444.129,161.56,439.353,161.561z"/>
	</g>
</g>
<g>
	<g>
		<rect x="64" y="384" width="16" height="16"/>
	</g>
</g>
<g>
</g>
<g>
</g>
<g>
</g>
<g>
</g>
<g>
</g>
<g>
</g>
<g>
</g>
<g>
</g>
<g>
</g>
<g>
</g>
<g>
</g>
<g>
</g>
<g>
</g>
<g>
</g>
<g>
</g>
</svg>
