<svg id="Layer_5" enable-background="new 0 0 64 64" height="512" viewBox="0 0 64 64" width="512" xmlns="http://www.w3.org/2000/svg"><g><path d="m19.265 35.286-2.045-.512c-1.307-.326-2.22-1.496-2.22-2.843 0-1.617 1.314-2.931 2.931-2.931h.139c1.616 0 2.93 1.314 2.93 2.931v.069l2-.069c0-2.4-1.725-4.399-4-4.837v-2.094h-2v2.094c-2.275.437-4 2.436-4 4.837 0 2.268 1.536 4.234 3.735 4.784l2.045.512c1.307.326 2.22 1.496 2.22 2.843 0 1.616-1.314 2.93-2.931 2.93h-.139c-1.616 0-2.93-1.314-2.93-2.931v-1.069h-2v1.069c0 2.4 1.725 4.399 4 4.837v2.094h2v-2.094c2.275-.437 4-2.436 4-4.837 0-2.267-1.536-4.234-3.735-4.783z"/><path d="m55 35v26h-2v-22h-8v22h-2v-18h-8v18h-2.184c.112-.314.184-.648.184-1v-2c0-.771-.301-1.468-.78-2 .48-.532.78-1.229.78-2v-2c0-1.654-1.346-3-3-3h-1.051c3.126-2.636 5.204-6.323 5.838-10.374l6.213-6.212 5 5 9-9 4.614 4.614 2.661-13.303-13.303 2.661 4.614 4.614-7.586 7.586-5-5-6.009 6.009c-.046-3.899-1.433-7.687-3.932-10.685l-5.074-6.089c1.169-.411 2.015-1.514 2.015-2.821 0-1.654-1.346-3-3-3h-.382l2.952-5.904c.281-.562.43-1.192.43-1.821v-.205c0-2.244-1.826-4.07-4.07-4.07h-3.86c-1.485 0-2.774.808-3.485 2h-4.515c-2.244 0-4.07 1.826-4.07 4.07 0 .807.236 1.587.684 2.258l2.448 3.672h-.132c-1.654 0-3 1.346-3 3 0 1.307.846 2.41 2.015 2.82l-5.075 6.09c-2.541 3.049-3.94 6.914-3.94 10.883v.207c0 5.063 2.259 9.803 6.05 13h-1.05c-1.654 0-3 1.346-3 3v2c0 .771.301 1.468.78 2-.479.532-.78 1.229-.78 2v2c0 1.654 1.346 3 3 3h23 1 33v-28zm4.725-12.725-1.339 6.697-5.357-5.357zm-12.725 18.725h4v20h-4zm-10 4h4v16h-4zm-26.652-36.781c-.228-.342-.348-.739-.348-1.149 0-1.141.929-2.07 2.07-2.07h3.937c0 .024-.007.046-.007.07v3.93h2v-3.93c0-1.141.929-2.07 2.07-2.07h3.859c1.142 0 2.071.929 2.071 2.07v.205c0 .32-.076.64-.219.926l-3.399 6.799h-8.847zm.652 6.781h14c.551 0 1 .449 1 1s-.449 1-1 1h-14c-.551 0-1-.449-1-1s.449-1 1-1zm-8 21v-.207c0-3.502 1.235-6.912 3.477-9.603l5.991-7.19h11.064l5.992 7.19c2.241 2.691 3.476 6.101 3.476 9.603v.207c0 5.368-2.879 10.323-7.524 13h-14.953c-4.644-2.677-7.523-7.632-7.523-13zm2 16c0-.551.449-1 1-1h1v2h2v-2h2v2h2v-2h2v2h2v-2h2v2h2v-2h2v2h2v-2h2v2h2v-2h1c.551 0 1 .449 1 1v2c0 .551-.449 1-1 1h-24c-.551 0-1-.449-1-1zm24 9h-23c-.551 0-1-.449-1-1v-2c0-.551.449-1 1-1h1v2h2v-2h2v2h2v-2h2v2h2v-2h2v2h2v-2h2v2h2v-2h2v2h2v-2h1c.551 0 1 .449 1 1v2c0 .551-.449 1-1 1zm32 0h-4v-24h4z"/><path d="m47 5h2v2h-2z"/><path d="m47 9h2v2h-2z"/><path d="m49 7h2v2h-2z"/><path d="m45 7h2v2h-2z"/><path d="m43 14h2v2h-2z"/><path d="m43 18h2v2h-2z"/><path d="m45 16h2v2h-2z"/><path d="m41 16h2v2h-2z"/><path d="m57 10h2v2h-2z"/><path d="m57 14h2v2h-2z"/><path d="m59 12h2v2h-2z"/><path d="m55 12h2v2h-2z"/><path d="m36 20h2v2h-2z"/><path d="m36 24h2v2h-2z"/><path d="m38 22h2v2h-2z"/><path d="m34 22h2v2h-2z"/><path d="m33 5h2v2h-2z"/><path d="m33 9h2v2h-2z"/><path d="m35 7h2v2h-2z"/><path d="m31 7h2v2h-2z"/></g></svg>