<svg width="2367" height="394" xmlns="http://www.w3.org/2000/svg" xmlns:xlink="http://www.w3.org/1999/xlink" overflow="hidden"><defs><clipPath id="clip0"><rect x="782" y="1364" width="2367" height="394"/></clipPath></defs><g clip-path="url(#clip0)" transform="translate(-782 -1364)"><path d="M796 1543C796 1470.1 855.099 1411 928 1411 1000.9 1411 1060 1470.1 1060 1543 1060 1615.9 1000.9 1675 928 1675 855.099 1675 796 1615.9 796 1543Z" stroke="#FFFFFF" stroke-width="27.5" stroke-miterlimit="8" fill="#FFFFFF" fill-rule="evenodd"/><text fill="#FFFFFF" font-family="Poppins,Poppins_MSFontService,sans-serif" font-weight="400" font-size="119" transform="matrix(1 0 0 1 1126.03 1510)">Center for Macroeconomic<tspan font-size="119" x="0" y="143">Forecasts &amp; Insights</tspan></text><path d="M803.507 1617.53C802.554 1630.89 899.17 1620.2 942.999 1601.49 986.828 1582.78 1067.82 1539.24 1066.48 1505.26 1065.15 1471.27 954.623 1394.9 934.995 1397.57 915.367 1400.24 970.44 1484.64 948.716 1521.3 926.992 1557.96 804.46 1604.16 803.507 1617.53Z" stroke="#2D8C26" stroke-width="4.58333" stroke-miterlimit="8" fill="#2D8C26" fill-rule="evenodd"/><path d="M2665.62 1612.36 2690.36 1612.36 2690.36 1587.62 2713.64 1587.62 2713.64 1612.36 2738.38 1612.36 2738.38 1635.64 2713.64 1635.64 2713.64 1660.38 2690.36 1660.38 2690.36 1635.64 2665.62 1635.64Z" stroke="#2D8C26" stroke-width="4.58333" stroke-miterlimit="8" fill="#FFFFFF" fill-rule="evenodd"/></g></svg>