<?xml version="1.0" standalone="no"?>
<svg xmlns="http://www.w3.org/2000/svg" version="1.1" xmlns:xlink="http://www.w3.org/1999/xlink" xmlns:svgjs="http://svgjs.com/svgjs" width="175" height="175" viewBox="0 0 175 175"><style class="base-styles">
		 .path-1, .path-4 {
			stroke-width: 5px;
			stroke: rgba(50, 50, 50, .5); 
		 }
		 .path-2, .path-3 {
			stroke-width: 20px;
			stroke: #2D8C26; 
		 }
         </style><g id="icon-group">
		 
<!-- <line x1="15" y1="37.5" x2="15" y2="112.5" class="path path-1" stroke="black"></line> -->
<!-- <line x1="15" y1="112.5" x2="75" y2="82.5" class="path path-1" stroke="black"></line> -->
<!-- <line x1="75" y1="82.5" x2="75" y2="7.5" class="path path-1" stroke="black"></line> -->
<!-- <line x1="75" y1="7.5" x2="15" y2="37.5" class="path path-1" stroke="black"></line> -->


<!-- <line x1="45" y1="52.5" x2="45" y2="127.5" class="path path-2" stroke="black"></line> -->
<!-- <line x1="45" y1="127.5" x2="105" y2="97.5" class="path path-2" stroke="black"></line> -->
<!-- <line x1="105" y1="97.5" x2="105" y2="22.5" class="path path-2" stroke="black"></line> -->
<!-- <line x1="105" y1="22.5" x2="45" y2="52.5" class="path path-2" stroke="black"></line> -->

<!-- <line x1="75" y1="82.5" x2="75" y2="157.5" class="path path-3" stroke="black"></line> -->
<!-- <line x1="75" y1="157.5" x2="135" y2="127.5" class="path path-3" stroke="black"></line> -->
<!-- <line x1="135" y1="127.5" x2="135" y2="52.5" class="path path-3" stroke="black"></line> -->
<!-- <line x1="135" y1="52.5" x2="75" y2="82.5" class="path path-3" stroke="black"></line> -->

<!-- <line x1="105" y1="97.5" x2="105" y2="172.5" class="path path-4" stroke="black"></line> -->
<!-- <line x1="105" y1="172.5" x2="165" y2="142.5" class="path path-4" stroke="black"></line> -->
<!-- <line x1="165" y1="142.5" x2="165" y2="67.5" class="path path-4" stroke="black"></line> -->
<!-- <line x1="165" y1="67.5" x2="105" y2="97.5" class="path path-4" stroke="black"></line> -->
		 
		 <path class="path-1" d="M 15 37.5 L 15 112.5 L 75 82.5 L 75 7.5 z" fill="transparent"  />
		 
		 <path class="path-2" d="M 45 52.5 L 45 127.5 L 105 97.5 L 105 22.5 z" fill="transparent"/>
		 <path class="path-3" d="M 75 82.5 L 75 157.5 L 135 127.5 L 135 52.5 z" fill="transparent"  />
		 <path class="path-4" d="M 105 97.5 L 105 172.5 L 165 142.5 L 165 67.5 z" fill="transparent"/>
		 </g>
		 <!-- <path d="M 30 115 C 60 75, 85 35, 115 115 S 170 185, 180 145" stroke-width="20px" stroke="rgba(45,140,38, 1)" fill="transparent" class="wave"></path> -->

		 </svg>